<?xml version="1.0" encoding="UTF-8" standalone="no"?>
<!DOCTYPE svg PUBLIC "-//W3C//DTD SVG 1.1//EN" "http://www.w3.org/Graphics/SVG/1.1/DTD/svg11.dtd">
<svg width="100%" height="100%" viewBox="0 0 1204 1201" version="1.1" xmlns="http://www.w3.org/2000/svg" xmlns:xlink="http://www.w3.org/1999/xlink" xml:space="preserve" xmlns:serif="http://www.serif.com/" style="fill-rule:evenodd;clip-rule:evenodd;stroke-linejoin:round;stroke-miterlimit:2;">
    <g transform="matrix(1,0,0,1,-198,-201)">
        <path d="M1398.01,1401.01L198,1401.01L198,201L1398.01,201L1398.01,1401.01Z" style="fill:white;fill-rule:nonzero;"/>
    </g>
    <g transform="matrix(1,0,0,1,-198,-201)">
        <path d="M956.234,1037.09L932.089,1007.38L932.089,1037.09L853.098,1037.09L853.098,986.379C842.89,991.081 831.703,993.51 819.904,993.51L791.992,993.51L791.992,1037.09L672.777,1037.09L650.954,1008.53L629.253,1037.09L431.419,1037.09L431.419,848.647L630.169,848.647L651.876,876.945L673.585,848.647L1398.01,848.647L1398.01,201L198,201L198,707.083L243.206,601.523L320.882,601.523L346.102,660.415L346.102,601.523L443.319,601.523L458.33,644.214L473.245,601.523L907.325,601.523L907.325,623.33C923.121,609.455 944.447,601.523 969.627,601.523L1107.81,601.523L1133.03,660.418L1133.03,601.523L1214.86,601.523L1236.5,635.064L1236.5,601.523L1318.24,601.523L1318.24,789.966L1236.96,789.966L1215.15,755.914L1215.15,789.966L1096.45,789.966L1084.69,761.082L1052.17,761.082L1040.61,789.966L966.882,789.966C942.746,789.966 922.449,782.663 907.325,769.597L907.325,789.966L785.485,789.966L761.34,760.254L761.34,789.966L309.527,789.966L297.769,761.082L265.244,761.082L253.682,789.966L198,789.966L198,1401.01L1398.01,1401.01L1398.01,1023.2C1385.88,1032.03 1370.3,1037.09 1352.39,1037.09L956.234,1037.09Z" style="fill:rgb(0,111,207);fill-rule:nonzero;"/>
        <path d="M1384.73,903.884C1384.73,903.884 1398.84,872.173 1398.84,872.173L1324.17,872.173C1293.4,872.173 1275.18,890.957 1275.18,916.609C1275.18,943.272 1292.42,958.622 1319.28,958.622L1352.79,958.622C1360.23,958.622 1365.53,963.269 1365.53,970.337C1365.53,977.406 1360.23,981.851 1352.79,981.851L1279.5,981.851L1279.5,1013.57L1352.39,1013.57C1383.15,1013.57 1401.38,994.981 1401.38,967.711C1401.38,942.059 1385.32,927.113 1357.29,927.113L1323.79,927.113C1316.34,927.113 1311.05,922.466 1311.05,915.396C1311.05,908.329 1316.34,903.884 1323.79,903.884L1384.73,903.884ZM1181.53,915.396C1181.53,908.329 1186.81,903.884 1194.26,903.884L1255.2,903.884L1269.32,872.173L1194.65,872.173C1163.88,872.173 1145.66,890.957 1145.66,916.609C1145.66,943.272 1162.9,958.622 1189.75,958.622L1223.27,958.622C1230.7,958.622 1236,963.269 1236,970.337C1236,977.406 1230.7,981.851 1223.27,981.851L1149.96,981.851L1149.96,1013.57L1222.88,1013.57C1253.63,1013.57 1271.86,994.981 1271.86,967.711C1271.86,942.059 1255.79,927.113 1227.77,927.113L1194.26,927.113C1186.81,927.113 1181.53,922.466 1181.53,915.396ZM1018.69,1013.57L1133.91,1013.57L1133.91,981.851L1054.55,981.851L1054.55,957.814L1131.95,957.814L1131.95,926.911L1054.55,926.911L1054.55,903.884L1133.91,903.884L1133.91,872.173L1018.69,872.173L1018.69,1013.57ZM1013,1013.57L967.158,962.057C990.279,957.207 1004.2,939.838 1004.2,917.822C1004.2,890.755 985.378,872.173 955.205,872.173L876.625,872.173L876.625,1013.57L912.484,1013.57L912.484,963.471L926.397,963.471L968.726,1013.57L1013,1013.57ZM951.48,932.768L912.484,932.768L912.484,903.884L951.48,903.884C962.453,903.884 968.138,910.55 968.138,918.426C968.138,926.506 962.453,932.768 951.48,932.768ZM861.155,919.84C861.155,891.563 842.34,872.173 812.167,872.173L732.607,872.173L732.607,1013.57L768.466,1013.57L768.466,967.509L810.99,967.509C841.948,967.509 861.155,947.11 861.155,919.84ZM825.1,920.043C825.1,928.728 819.414,935.798 808.442,935.798L768.466,935.798L768.466,903.884L808.442,903.884C819.414,903.884 825.1,911.157 825.1,920.043ZM729.476,1013.57L672.648,942.261L729.083,872.173L685.19,872.173L651.876,915.598L618.565,872.173L573.495,872.173L630.126,943.07L573.691,1013.57L617.585,1013.57L650.898,969.733L684.405,1013.57L729.476,1013.57ZM455.536,1013.57L570.76,1013.57L570.76,981.851L491.395,981.851L491.395,957.814L568.799,957.814L568.799,926.911L491.395,926.911L491.395,903.884L570.76,903.884L570.76,872.173L455.536,872.173L455.536,1013.57Z" style="fill:rgb(0,111,207);fill-rule:nonzero;"/>
        <path d="M1294.12,766.44L1294.12,625.05L1258.45,625.05L1258.45,712.712L1202.02,625.05L1156.56,625.05L1156.56,766.44L1192.41,766.44L1192.41,675.545L1250.62,766.44L1294.12,766.44ZM1112.28,766.44L1152.85,766.44L1092.29,625.05L1045.65,625.05L985.102,766.44L1024.68,766.44L1036.25,737.556L1100.53,737.556L1112.28,766.44ZM1087.99,706.852L1048.79,706.852L1068.38,658.375L1087.99,706.852ZM972.327,657.772L1010.35,657.772L1010.35,625.05L969.583,625.05C925.104,625.05 901.197,654.54 901.197,694.734L901.197,696.756C901.197,740.181 926.28,766.44 966.838,766.44L969.779,766.44L984.477,734.728L972.916,734.728C950.382,734.728 937.057,720.992 937.057,696.756L937.057,694.734C937.057,673.526 948.814,657.772 972.327,657.772ZM847.94,766.44L883.799,766.44L883.799,625.05L847.94,625.05L847.94,766.44ZM842.261,766.44L796.409,714.933C819.531,710.084 833.444,692.715 833.444,670.699C833.444,643.632 814.63,625.05 784.456,625.05L705.876,625.05L705.876,766.44L741.735,766.44L741.735,716.348L755.649,716.348L797.974,766.44L842.261,766.44L842.261,766.44ZM780.731,685.645L741.735,685.645L741.735,656.761L780.731,656.761C791.704,656.761 797.389,663.427 797.389,671.302C797.389,679.383 791.704,685.645 780.731,685.645ZM570.281,766.44L685.505,766.44L685.505,734.728L606.141,734.728L606.141,710.691L683.544,710.691L683.544,679.788L606.141,679.788L606.141,656.761L685.505,656.761L685.505,625.05L570.281,625.05L570.281,766.44ZM510.914,766.44L546.382,766.44L546.382,625.05L489.947,625.05L458.398,715.338L426.652,625.05L369.628,625.05L369.628,766.44L405.096,766.44L405.096,661.81L442.327,766.44L473.683,766.44L510.914,661.81L510.914,766.44ZM325.352,766.44L365.913,766.44L305.364,625.05L258.725,625.05L198.175,766.44L237.759,766.44L249.32,737.556L313.595,737.556L325.352,766.44ZM301.054,706.852L261.862,706.852L281.457,658.375L301.054,706.852Z" style="fill:rgb(0,111,207);fill-rule:nonzero;"/>
    </g>
</svg>
