<?xml version="1.0" encoding="UTF-8" standalone="no"?>
<!DOCTYPE svg PUBLIC "-//W3C//DTD SVG 1.1//EN" "http://www.w3.org/Graphics/SVG/1.1/DTD/svg11.dtd">
<svg width="100%" height="100%" viewBox="0 0 380 244" version="1.1" xmlns="http://www.w3.org/2000/svg" xmlns:xlink="http://www.w3.org/1999/xlink" xml:space="preserve" xmlns:serif="http://www.serif.com/" style="fill-rule:evenodd;clip-rule:evenodd;stroke-linejoin:round;stroke-miterlimit:2;">
    <g id="XMLID_428_" transform="matrix(1,0,0,1,-60,-128.4)">
        <path d="M61.3,129.9L438.6,129.9L438.6,370.1L61.4,370.1L61.3,129.9Z" style="fill:white;fill-rule:nonzero;"/>
    </g>
    <g id="XMLID_427_" transform="matrix(1,0,0,1,-60,-128.4)">
        <path d="M437.3,263.5C437.3,263.5 334.2,336.2 145.4,368.8L437.3,368.8L437.3,263.5Z" style="fill:rgb(244,129,32);fill-rule:nonzero;"/>
    </g>
    <g id="XMLID_2_" transform="matrix(1,0,0,1,-60,-128.4)">
        <path d="M438.6,128.5L60,128.5L60,371.5L440,371.5L440,128.4L438.6,128.4L438.6,128.5ZM437.3,131.2L437.3,368.7L62.8,368.7L62.8,131.2L437.3,131.2Z" style="fill:rgb(35,31,32);fill-rule:nonzero;"/>
    </g>
    <g transform="matrix(1,0,0,1,-60,-128.4)">
        <path d="M93.2,202.8L77.5,202.8L77.5,257.8L93.2,257.8C101.5,257.8 107.5,255.8 112.8,251.5C119.1,246.3 122.8,238.5 122.8,230.4C122.7,214.1 110.6,202.8 93.2,202.8ZM105.8,244.2C102.4,247.2 98.1,248.6 91.1,248.6L88.2,248.6L88.2,212.2L91.1,212.2C98,212.2 102.2,213.4 105.8,216.6C109.5,219.9 111.7,225 111.7,230.3C111.7,235.6 109.5,240.9 105.8,244.2Z" style="fill:rgb(35,31,32);fill-rule:nonzero;"/>
    </g>
    <g id="XMLID_422_" transform="matrix(1,0,0,1,-60,-128.4)">
        <rect x="127.7" y="202.8" width="10.7" height="55" style="fill:rgb(35,31,32);"/>
    </g>
    <g id="XMLID_421_" transform="matrix(1,0,0,1,-60,-128.4)">
        <path d="M164.6,223.9C158.2,221.5 156.3,219.9 156.3,217C156.3,213.5 159.7,210.9 164.3,210.9C167.5,210.9 170.2,212.2 172.9,215.4L178.5,208.1C173.9,204.1 168.4,202 162.3,202C152.6,202 145.1,208.8 145.1,217.8C145.1,225.4 148.6,229.3 158.6,232.9C162.8,234.4 164.9,235.4 166,236C168.1,237.4 169.2,239.4 169.2,241.7C169.2,246.2 165.7,249.5 160.9,249.5C155.8,249.5 151.7,246.9 149.2,242.2L142.3,248.9C147.2,256.2 153.2,259.4 161.3,259.4C172.4,259.4 180.3,252 180.3,241.3C180.5,232.4 176.8,228.4 164.6,223.9Z" style="fill:rgb(35,31,32);fill-rule:nonzero;"/>
    </g>
    <g id="XMLID_420_" transform="matrix(1,0,0,1,-60,-128.4)">
        <path d="M183.8,230.4C183.8,246.6 196.5,259.1 212.8,259.1C217.4,259.1 221.4,258.2 226.2,255.9L226.2,243.3C221.9,247.6 218.1,249.3 213.3,249.3C202.5,249.3 194.8,241.5 194.8,230.3C194.8,219.7 202.7,211.4 212.8,211.4C217.9,211.4 221.8,213.2 226.2,217.6L226.2,205C221.5,202.6 217.6,201.6 213,201.6C196.9,201.6 183.8,214.4 183.8,230.4Z" style="fill:rgb(35,31,32);fill-rule:nonzero;"/>
    </g>
    <g id="XMLID_419_" transform="matrix(1,0,0,1,-60,-128.4)">
        <path d="M311.4,239.8L296.7,202.8L285,202.8L308.3,259.2L314.1,259.2L337.8,202.8L326.2,202.8L311.4,239.8Z" style="fill:rgb(35,31,32);fill-rule:nonzero;"/>
    </g>
    <g id="XMLID_418_" transform="matrix(1,0,0,1,-60,-128.4)">
        <path d="M342.7,257.8L373.1,257.8L373.1,248.5L353.4,248.5L353.4,233.7L372.4,233.7L372.4,224.4L353.4,224.4L353.4,212.2L373.1,212.2L373.1,202.8L342.7,202.8L342.7,257.8Z" style="fill:rgb(35,31,32);fill-rule:nonzero;"/>
    </g>
    <g transform="matrix(1,0,0,1,-60,-128.4)">
        <path d="M415.6,219.1C415.6,208.8 408.5,202.9 396.1,202.9L380.2,202.9L380.2,257.9L390.9,257.9L390.9,235.8L392.3,235.8L407.1,257.9L420.3,257.9L403,234.7C411.1,233 415.6,227.5 415.6,219.1ZM394,228.2L390.9,228.2L390.9,211.5L394.2,211.5C400.9,211.5 404.5,214.3 404.5,219.7C404.5,225.2 400.9,228.2 394,228.2Z" style="fill:rgb(35,31,32);fill-rule:nonzero;"/>
    </g>
    <g id="XMLID_415_" transform="matrix(1,0,0,1,-60,-128.4)">
        <circle cx="259.1" cy="230.5" r="29.3" style="fill:url(#_Linear1);"/>
    </g>
    <g id="XMLID_414_" transform="matrix(1,0,0,1,-60,-128.4)">
        <circle cx="259.1" cy="230.5" r="29.3" style="fill:url(#_Linear2);"/>
    </g>
    <g id="XMLID_436_" transform="matrix(1,0,0,1,-60,-128.4)">
        <path d="M422.4,204.9C422.4,203.9 421.7,203.4 420.6,203.4L419,203.4L419,208.2L420.2,208.2L420.2,206.3L421.6,208.2L423,208.2L421.4,206.2C422,206.1 422.4,205.6 422.4,204.9ZM420.4,205.6L420.2,205.6L420.2,204.3L420.4,204.3C421,204.3 421.3,204.5 421.3,204.9C421.3,205.4 421,205.6 420.4,205.6Z" style="fill:rgb(35,31,32);fill-rule:nonzero;"/>
        <path d="M420.8,201.6C418.5,201.6 416.6,203.5 416.6,205.8C416.6,208.1 418.5,210 420.8,210C423.1,210 425,208.1 425,205.8C425,203.5 423.1,201.6 420.8,201.6ZM420.8,209.3C419,209.3 417.4,207.8 417.4,205.8C417.4,203.9 418.9,202.3 420.8,202.3C422.6,202.3 424.1,203.9 424.1,205.8C424.1,207.7 422.6,209.3 420.8,209.3Z" style="fill:rgb(35,31,32);fill-rule:nonzero;"/>
    </g>
    <defs>
        <linearGradient id="_Linear1" x1="0" y1="0" x2="1" y2="0" gradientUnits="userSpaceOnUse" gradientTransform="matrix(-20.2539,-31.7117,31.7117,-20.2539,274.075,253.947)"><stop offset="0" style="stop-color:rgb(248,159,32);stop-opacity:1"/><stop offset="0.25" style="stop-color:rgb(247,154,32);stop-opacity:1"/><stop offset="0.53" style="stop-color:rgb(246,141,32);stop-opacity:1"/><stop offset="0.62" style="stop-color:rgb(245,135,32);stop-opacity:1"/><stop offset="0.72" style="stop-color:rgb(244,129,32);stop-opacity:1"/><stop offset="1" style="stop-color:rgb(243,117,33);stop-opacity:1"/></linearGradient>
        <linearGradient id="_Linear2" x1="0" y1="0" x2="1" y2="0" gradientUnits="userSpaceOnUse" gradientTransform="matrix(-29.6017,-57.8582,57.8582,-29.6017,270.878,253.52)"><stop offset="0" style="stop-color:rgb(245,135,32);stop-opacity:0.65"/><stop offset="0.36" style="stop-color:rgb(225,111,39);stop-opacity:0.65"/><stop offset="0.7" style="stop-color:rgb(212,96,44);stop-opacity:0.65"/><stop offset="0.98" style="stop-color:rgb(208,91,46);stop-opacity:0.65"/><stop offset="1" style="stop-color:rgb(208,91,46);stop-opacity:0.65"/></linearGradient>
    </defs>
</svg>
